<?xml version="1.0" encoding="utf-8"?>
<!-- Svg Vector Icons : http://www.onlinewebfonts.com/icon -->
<!DOCTYPE svg PUBLIC "-//W3C//DTD SVG 1.1//EN" "http://www.w3.org/Graphics/SVG/1.1/DTD/svg11.dtd">
<svg version="1.1" xmlns="http://www.w3.org/2000/svg" xmlns:xlink="http://www.w3.org/1999/xlink" x="0px" y="0px" viewBox="0 0 1000 1000" enable-background="new 0 0 1000 1000" xml:space="preserve">
<metadata> Svg Vector Icons : http://www.onlinewebfonts.com/icon </metadata>
<g><path fill="#8b8987" d="M152.9,479.9h326.7v196.8c0,11.3,9.1,20.4,20.4,20.4l0,0c11.3,0,20.4-9.1,20.4-20.4V479.9h326.7V697c0,11.3,9.1,20.4,20.4,20.4l0,0c11.3,0,20.4-9.1,20.4-20.4V472.7c0-18.6-15-33.6-33.6-33.6H520.4v-89.2c0-11.3-9.1-20.4-20.4-20.4l0,0c-11.3,0-20.4,9.1-20.4,20.4v89.2H145.7c-18.6,0-33.6,15-33.6,33.6V697c0,11.3,9.1,20.4,20.4,20.4l0,0c11.3,0,20.4-9.1,20.4-20.4V479.9L152.9,479.9L152.9,479.9z M234.6,750.4H30.4c-11.3,0-20.4,9.1-20.4,20.4v197.9c0,11.3,9.1,20.4,20.4,20.4h204.2c11.3,0,20.4-9.2,20.4-20.4V770.8C255,759.5,245.8,750.4,234.6,750.4L234.6,750.4L234.6,750.4z M602.1,750.4H397.9c-11.3,0-20.4,9.1-20.4,20.4v197.9c0,11.3,9.1,20.4,20.4,20.4h204.2c11.3,0,20.4-9.2,20.4-20.4V770.8C622.5,759.5,613.3,750.4,602.1,750.4L602.1,750.4L602.1,750.4z M969.6,750.4H765.4c-11.3,0-20.4,9.1-20.4,20.4v197.9c0,11.3,9.1,20.4,20.4,20.4h204.2c11.3,0,20.4-9.2,20.4-20.4V770.8C990,759.5,980.8,750.4,969.6,750.4L969.6,750.4L969.6,750.4z M336.7,296.1h326.7c11.3,0,20.4-9.1,20.4-20.4V31.3c0-11.3-9.2-20.4-20.4-20.4H336.7c-11.3,0-20.4,9.1-20.4,20.4v244.4C316.2,287,325.4,296.1,336.7,296.1L336.7,296.1L336.7,296.1z"/></g>
</svg>